<svg width="18" height="19" viewBox="0 0 18 19" fill="none" xmlns="http://www.w3.org/2000/svg">
<path fill-rule="evenodd" clip-rule="evenodd" d="M0.75 9.68994C2.0475 6.39744 5.25 4.06494 9 4.06494C12.75 4.06494 15.9525 6.39744 17.25 9.68994C15.9525 12.9824 12.75 15.3149 9 15.3149C5.25 15.3149 2.0475 12.9824 0.75 9.68994ZM15.615 9.68994C14.3775 7.16244 11.8425 5.56494 9 5.56494C6.1575 5.56494 3.6225 7.16244 2.385 9.68994C3.6225 12.2174 6.1575 13.8149 9 13.8149C11.8425 13.8149 14.3775 12.2174 15.615 9.68994ZM9 7.81494C10.035 7.81494 10.875 8.65494 10.875 9.68994C10.875 10.7249 10.035 11.5649 9 11.5649C7.965 11.5649 7.125 10.7249 7.125 9.68994C7.125 8.65494 7.965 7.81494 9 7.81494ZM5.625 9.68994C5.625 7.82994 7.14 6.31494 9 6.31494C10.86 6.31494 12.375 7.82994 12.375 9.68994C12.375 11.5499 10.86 13.0649 9 13.0649C7.14 13.0649 5.625 11.5499 5.625 9.68994Z" fill="#525252"/>
</svg>
