<svg width="28" height="29" viewBox="0 0 28 29" fill="none" xmlns="http://www.w3.org/2000/svg">
<path d="M18.6665 14.2799C18.6665 15.5632 19.7165 16.6132 20.9998 16.6132C22.2831 16.6132 23.3331 15.5632 23.3331 14.2799C23.3331 12.9965 22.2831 11.9465 20.9998 11.9465C19.7165 11.9465 18.6665 12.9965 18.6665 14.2799ZM16.3331 14.2799C16.3331 12.9965 15.2831 11.9465 13.9998 11.9465C12.7165 11.9465 11.6665 12.9965 11.6665 14.2799C11.6665 15.5632 12.7165 16.6132 13.9998 16.6132C15.2831 16.6132 16.3331 15.5632 16.3331 14.2799ZM9.33317 14.2799C9.33317 12.9965 8.28317 11.9465 6.99984 11.9465C5.7165 11.9465 4.6665 12.9965 4.6665 14.2799C4.6665 15.5632 5.7165 16.6132 6.99984 16.6132C8.28317 16.6132 9.33317 15.5632 9.33317 14.2799Z" fill="black"/>
</svg>
